<svg id="Layer_1" data-name="Layer 1" xmlns="http://www.w3.org/2000/svg" viewBox="0 0 171.43 171.43"><defs><style>.cls-1{fill:#9199a7;}.cls-2{fill:#fff;}</style></defs><title>facebook</title><path class="cls-1" d="M123.84,171.43H47.59A47.56,47.56,0,0,1,0,123.84V47.59A47.56,47.56,0,0,1,47.59,0h76.25a47.56,47.56,0,0,1,47.59,47.59v76.25a47.56,47.56,0,0,1-47.59,47.59"/><polygon class="cls-2" points="81.23 158.6 73.11 113.34 53.49 81.1 79.42 50.17 88.88 23.11 94.38 19.84 142.79 31.88 151.24 56.15 143.6 116 121.79 158.3 81.23 158.6"/><path class="cls-1" d="M37.11,11.3c-11.5,0-25.53,1.82-25.53,13.33V137.57c0,4.52,16.48,19.73,30,20.32,39.44,1.23,46.56.52,46.56.52l.1-55.25H73.85a3.39,3.39,0,0,1-3.38-3.38L70.4,82a3.39,3.39,0,0,1,3.39-3.4H88.11V61.37c0-20,12.2-30.85,30-30.85h14.61a3.39,3.39,0,0,1,3.39,3.39v15a3.38,3.38,0,0,1-3.38,3.38h-9c-9.68,0-11.56,4.6-11.56,11.36V78.57H133.5a3.39,3.39,0,0,1,3.36,3.79l-2.11,17.81a3.39,3.39,0,0,1-3.36,3H112.31l-.1,55.25s44.52,2.3,54-20.84L158,32.65C158,21.14,37.11,11.3,37.11,11.3Z"/></svg>