<svg id="Layer_2" data-name="Layer 2" xmlns="http://www.w3.org/2000/svg" viewBox="0 0 612 612"><defs><style>.cls-1{fill:#4f7ba4;}.cls-2{fill:#004978;}.cls-3{fill:#999fad;}.cls-4{fill:#eeedf2;}</style></defs><title>Laptop</title><circle class="cls-1" cx="298.59" cy="310.81" r="275.06"/><circle class="cls-2" cx="288.11" cy="316.12" r="271.33"/><polygon class="cls-3" points="434.89 156.43 166.21 156.43 183.48 326.34 188.69 332.25 143.56 451.47 466.31 452.33 414.73 331.02 434.89 156.43"/><polygon class="cls-4" points="421.68 168.82 167.25 168.82 184.53 333.73 135.84 451.51 449.95 451.51 401.87 332.09 421.68 168.82"/><rect class="cls-2" x="149.52" y="324.33" width="286.43" height="19"/><rect class="cls-2" x="264.2" y="445.5" width="66.06" height="25.34" rx="2.07" ry="2.07"/><path class="cls-3" d="M346.83,421.14H247.6a2.5,2.5,0,0,1,0-5h96.07l-6.2-26.2-9.28,0a2.5,2.5,0,0,1,0-5h0l11.25,0a2.51,2.51,0,0,1,2.43,1.93l7.37,31.19a2.5,2.5,0,0,1-2.43,3.08Z"/><path class="cls-3" d="M347,421.13H247.72a2.5,2.5,0,0,1-2.43-3.08l7.38-31.19a2.49,2.49,0,0,1,2.43-1.92l82.72,0h0a2.5,2.5,0,1,1,0,5l-80.74,0-6.2,26.2H347a2.5,2.5,0,0,1,0,5Z"/><path class="cls-3" d="M249.46,294.69a2.36,2.36,0,0,1-1.36-4.29l117.42-82.22a2.36,2.36,0,0,1,2.71,3.87L250.81,294.26A2.37,2.37,0,0,1,249.46,294.69Z"/><path class="cls-3" d="M291.59,296.45a2.36,2.36,0,0,1-1.33-4.31l82.15-55.65a2.36,2.36,0,0,1,2.64,3.91l-82.14,55.65A2.4,2.4,0,0,1,291.59,296.45Z"/><path class="cls-3" d="M253.3,256.43a2.36,2.36,0,0,1-1.32-4.31l82.15-55.65a2.36,2.36,0,0,1,2.64,3.91L254.63,256A2.41,2.41,0,0,1,253.3,256.43Z"/></svg>