<svg id="Layer_2" data-name="Layer 2" xmlns="http://www.w3.org/2000/svg" viewBox="0 0 612 612"><defs><style>.cls-1{fill:#4f7ba4;}.cls-2{fill:#004978;}.cls-3{fill:#999fad;}.cls-4{fill:#eeedf2;}</style></defs><title>People</title><circle class="cls-1" cx="308.75" cy="310.81" r="275.06"/><circle class="cls-2" cx="298.27" cy="316.12" r="271.33"/><path class="cls-3" d="M442.35,211.41s21.91-48.37-9.43-63.92c-9.42-4.67-24.93-2-34.53,2.33-35.31,15.79-5.7,58.59-5.7,58.59S350,250.88,352.46,403.51l128.06,4.76S496.11,272.26,442.35,211.41Z"/><path class="cls-4" d="M436.26,213.18s23.53-47.67-7.8-63.22c-9.43-4.68-20.47-4.43-30.07-.14-35.31,15.79-12.06,63.36-12.06,63.36s-42.64,42.47-40.22,195.09H480.52S490,274,436.26,213.18Z"/><path class="cls-3" d="M222.71,210.11s21.91-48.36-9.43-63.91c-9.42-4.67-24.93-2-34.53,2.33-35.31,15.79-5.7,58.59-5.7,58.59s-42.65,42.47-40.23,195.1L260.88,407S276.47,271,222.71,210.11Z"/><path class="cls-4" d="M216.62,211.88s23.54-47.67-7.8-63.21c-9.42-4.68-20.47-4.43-30.07-.14-35.31,15.79-12.05,63.35-12.05,63.35S124.05,254.36,126.47,407H260.88S270.38,272.74,216.62,211.88Z"/><path class="cls-3" d="M336.41,298s21.9-48.36-9.43-63.91c-9.43-4.68-24.93-2-34.53,2.33-35.31,15.78-5.7,58.58-5.7,58.58s-42.65,42.48-40.23,195.1l128.06,4.77S390.17,358.82,336.41,298Z"/><path class="cls-4" d="M330.32,299.74s23.53-47.67-7.81-63.22a35.26,35.26,0,0,0-30.06-.13c-35.31,15.78-12.06,63.35-12.06,63.35s-42.65,42.47-40.23,195.1H374.58S384.08,360.59,330.32,299.74Z"/></svg>