<svg id="Layer_1" data-name="Layer 1" xmlns="http://www.w3.org/2000/svg" viewBox="0 0 171.43 171.43"><defs><style>.cls-1{fill:#9199a7;}.cls-2{fill:#fff;}</style></defs><title>twitter</title><path class="cls-1" d="M123.84,171.43H47.59A47.56,47.56,0,0,1,0,123.84V47.59A47.56,47.56,0,0,1,47.59,0h76.25a47.56,47.56,0,0,1,47.59,47.59v76.25a47.56,47.56,0,0,1-47.59,47.59"/><path class="cls-2" d="M157.72,53a55.87,55.87,0,0,1-15.52,4.26,26.79,26.79,0,0,0,11.85-14.89A54.17,54.17,0,0,1,137,48.86,26.94,26.94,0,0,0,90.36,67.28,28,28,0,0,0,91,73.43,76.26,76.26,0,0,1,35.45,45.24a26.94,26.94,0,0,0,8.28,36,26.6,26.6,0,0,1-12.18-3.31v.29a27.08,27.08,0,0,0,21.59,26.48,27.26,27.26,0,0,1-7.06.88,23.85,23.85,0,0,1-5.1-.46A27.18,27.18,0,0,0,66.15,123.9a54.11,54.11,0,0,1-33.4,11.49A50.69,50.69,0,0,1,26.3,135a75.82,75.82,0,0,0,41.33,12.1c49.58,0,76.69-41.08,76.69-76.68,0-1.19,0-2.34-.1-3.48A53.48,53.48,0,0,0,157.72,53Z"/></svg>