<svg id="Layer_2" data-name="Layer 2" xmlns="http://www.w3.org/2000/svg" viewBox="0 0 612 612"><defs><style>.cls-1{fill:#4f7ba4;}.cls-2{fill:#004978;}.cls-3{fill:#999fad;}.cls-4{fill:#eeedf2;}</style></defs><title>Wifi</title><circle class="cls-1" cx="310.52" cy="310.81" r="275.06"/><circle class="cls-2" cx="300.04" cy="316.12" r="271.33"/><path class="cls-3" d="M486.21,251.23c-45.74-46.56-106.73-74.78-176-74.78S183.34,205.71,139,252.27c-2.77,2.82-8.71,9.7-8.71,13.93s1.09,1.95,3.86,4.78l19.4,19.75a13.25,13.25,0,0,0,19.41,0,191.71,191.71,0,0,1,274.46,0,13.24,13.24,0,0,0,19.4,0L486.21,271a13,13,0,0,0,4.16-9.88C490.37,256.87,489,252.64,486.21,251.23Z"/><path class="cls-3" d="M310.17,289.32c-38.81,0-71.93,19.32-96.88,44.71-5.55,5.65-5.7,10.31-.15,16l19.4,19.75a13.25,13.25,0,0,0,19.41,0c15.25-15.52,36-24,58.22-24s43,9.87,58.22,24a13.24,13.24,0,0,0,19.4,0L407.2,350a13.81,13.81,0,0,0,0-19.75C382.25,304.83,349,289.32,310.17,289.32Z"/><ellipse class="cls-3" cx="306.26" cy="432.43" rx="29.49" ry="28.16"/><path class="cls-4" d="M476.4,262.77C431.1,217.46,370.69,190,302.05,190S171.63,217.46,127.7,262.77a13.27,13.27,0,0,0,0,19.22l19.22,19.22a13.27,13.27,0,0,0,19.22,0,192.22,192.22,0,0,1,271.82,0,13.27,13.27,0,0,0,19.22,0L476.4,282a12.47,12.47,0,0,0,4.12-9.61C480.52,268.26,479.15,264.14,476.4,262.77Z"/><path class="cls-4" d="M302.05,299.83A133.6,133.6,0,0,0,206,339.65a13.27,13.27,0,0,0,0,19.22l19.22,19.22a13.27,13.27,0,0,0,19.22,0c15.1-15.11,35.69-23.34,57.66-23.34s42.56,9.61,57.66,23.34a13.27,13.27,0,0,0,19.22,0l19.22-19.22a13.27,13.27,0,0,0,0-19.22A133.6,133.6,0,0,0,302.05,299.83Z"/><circle class="cls-4" cx="302.05" cy="437.12" r="27.46"/></svg>