<svg id="Layer_1" data-name="Layer 1" xmlns="http://www.w3.org/2000/svg" viewBox="0 0 171.43 171.43"><defs><style>.cls-1{fill:#9199a7;}.cls-2{fill:#fff;}</style></defs><title>wordpress</title><path class="cls-1" d="M123.84,171.43H47.59A47.56,47.56,0,0,1,0,123.84V47.59A47.56,47.56,0,0,1,47.59,0h76.25a47.56,47.56,0,0,1,47.59,47.59v76.25a47.56,47.56,0,0,1-47.59,47.59"/><circle class="cls-2" cx="85.71" cy="86.71" r="72.27"/><path class="cls-1" d="M54.45,56.79H45.82l23.53,66.52L82.52,85.67,72.31,56.79H63.2V50.46h40.33v6.33H94.09l23.53,66.52,8.46-24.17c11.1-31-9.1-40.62-9.1-47.53A12.52,12.52,0,0,1,129.5,39.1c.37,0,.74,0,1.09,0a65.39,65.39,0,0,0-99.3,11.31H54.45v6.33Z"/><path class="cls-1" d="M20.32,86.71a65.38,65.38,0,0,0,34.74,57.77L25.55,61.06A65,65,0,0,0,20.32,86.71Z"/><path class="cls-1" d="M142.62,54.48a46.09,46.09,0,0,1-.78,17.92h.26l-1,2.82h0A59,59,0,0,1,139,81.4l-22.5,63a65.41,65.41,0,0,0,26.17-90Z"/><path class="cls-1" d="M65.55,148.93a65.75,65.75,0,0,0,39.45.28L85.87,95.14Z"/></svg>