<svg id="Layer_1" data-name="Layer 1" xmlns="http://www.w3.org/2000/svg" viewBox="0 0 171.43 171.43"><defs><style>.cls-1{fill:#9199a7;}.cls-2{fill:#fff;}</style></defs><title>youtube</title><path class="cls-1" d="M123.84,171.43H47.59A47.56,47.56,0,0,1,0,123.84V47.59A47.56,47.56,0,0,1,47.59,0h76.25a47.56,47.56,0,0,1,47.59,47.59v76.25a47.56,47.56,0,0,1-47.59,47.59"/><path class="cls-2" d="M153.77,55.76s-1.43-10.31-5.51-14.86c-5.27-6-11.26-6-13.9-6.23C115,33.23,85.71,33,85.71,33h0s-29.23.24-48.64,1.68c-2.64.24-8.63.48-13.9,6.23-4.32,4.55-5.51,14.86-5.51,14.86A239.33,239.33,0,0,0,16.22,80.2V91.47a231.64,231.64,0,0,0,1.44,24.2s1.43,10.31,5.51,14.86c5.27,6,12.22,5.75,15.33,6.47,11,1.2,47.21,1.44,47.21,1.44s29.24,0,48.65-1.68c2.64-.24,8.63-.48,13.9-6.23,4.08-4.56,5.51-14.86,5.51-14.86a237.79,237.79,0,0,0,1.44-24.2V80.2a239.33,239.33,0,0,0-1.44-24.44"/><polygon class="cls-1" points="68.94 61.51 68.94 113.51 114.47 88.11 68.94 61.51"/></svg>