<svg id="Layer_2" data-name="Layer 2" xmlns="http://www.w3.org/2000/svg" viewBox="0 0 576 399.6"><defs><style>.cls-1{fill:#3a97d3;}</style></defs><title>Artboard 1</title><path class="cls-1" d="M37.18,143.06h88.88s13.46,2.29,13.71,20.57L72.48,236.26h60.69s13.46,3.05,14.22,20.57H55.46s-13.71-1-14.47-20.06l68.82-73.14H50.64S36.92,158.3,37.18,143.06Z"/><path class="cls-1" d="M195.85,143.61c73.56,0,74.58,113.39,0,113.39S116.17,143.61,195.85,143.61Zm-.08,92.14c47,0,46.36-71.47,0-71.47C145.55,164.28,148.77,235.75,195.77,235.75Z"/><path class="cls-1" d="M317.64,143.61c73.56,0,74.58,113.39,0,113.39S238,143.61,317.64,143.61Zm-.08,92.14c47,0,46.36-71.47,0-71.47C267.34,164.28,270.56,235.75,317.56,235.75Z"/><path class="cls-1" d="M380.79,142.48V257.12s21.36-2,21.36-12.89V183.52s4.07-19.67,22.72-19.67,24.42,14.24,24.42,17.64v62.4s2.38,12.55,20.69,12.55V181.83s6.44-18.32,23.06-18.32,24.42,14.58,24.42,18.65v62.07s2.37,12.21,21.37,12.21V180.81s-8.48-37.65-45.11-37.65c0,0-20-1-33.91,15.6,0,0-12.89-15.94-34.6-15.94a42.93,42.93,0,0,0-22.72,7.8S395.71,144.52,380.79,142.48Z"/></svg>
